M48
;DRILL file {KiCad 4.0.2+dfsg1-stable} date Wed 24 Jan 2018 08:48:11 PM PST
;FORMAT={-:-/ absolute / metric / decimal}
FMAT,2
METRIC,TZ
T1C0.400
T2C0.500
T3C0.813
T4C1.016
T5C1.400
T6C1.499
T7C1.999
T8C2.050
T9C2.390
T10C3.048
T11C3.450
T12C3.500
%
G90
G05
M71
T1
X53.188Y-86.97
X53.746Y-87.782
X55.626Y-70.358
X55.728Y-112.725
X56.896Y-113.792
X58.014Y-89.306
X58.42Y-86.97
X59.385Y-90.018
X62.674Y-121.92
X63.398Y-99.212
X64.262Y-122.733
X64.325Y-91.948
X64.364Y-121.564
X64.579Y-92.837
X64.579Y-97.346
X65.341Y-117.094
X66.865Y-85.725
X66.865Y-93.662
X67.666Y-104.699
X69.088Y-104.331
X69.799Y-91.338
X69.901Y-95.809
X70.409Y-107.594
X70.561Y-104.648
X71.945Y-111.379
X72.441Y-120.802
X72.796Y-90.526
X72.796Y-91.999
X72.796Y-111.252
X72.898Y-115.379
X73.05Y-97.485
X73.812Y-97.536
X73.965Y-84.074
X74.778Y-97.485
X75.794Y-96.622
X76.048Y-74.93
X77.533Y-120.459
X79.248Y-80.315
X79.807Y-105.004
X80.213Y-87.224
X80.416Y-88.697
X80.518Y-74.625
X80.518Y-108.407
X80.772Y-80.416
X81.178Y-101.041
X81.229Y-73.812
X81.585Y-105.461
X81.94Y-75.438
X82.499Y-103.835
X83.312Y-74.778
X84.328Y-104.597
X84.734Y-76.556
X85.141Y-116.383
X85.395Y-75.895
X85.395Y-79.146
X86.055Y-76.759
X86.258Y-79.045
X86.411Y-77.572
X87.478Y-79.35
X87.478Y-80.518
X87.478Y-89.357
X87.833Y-114.503
X87.986Y-151.638
X88.494Y-149.2
X88.646Y-81.178
X88.798Y-117.246
X90.119Y-104.699
X90.424Y-112.725
X90.627Y-107.34
X90.678Y-83.464
X94.285Y-80.416
X95.047Y-93.878
X96.901Y-103.314
X97.282Y-131.318
X97.841Y-109.88
X98.171Y-102.171
X98.171Y-103.632
X100.482Y-72.695
X101.854Y-118.313
X101.854Y-122.834
X102.26Y-151.587
X102.413Y-150.063
X102.667Y-118.313
X102.768Y-143.256
X103.988Y-71.069
X105.461Y-132.283
X105.855Y-75.565
X106.274Y-150.012
X108.56Y-66.396
X109.982Y-71.374
X110.934Y-76.01
X111.633Y-143.129
X112.725Y-150.216
X112.827Y-115.214
X113.093Y-130.279
X113.411Y-135.509
X113.436Y-71.272
X113.487Y-91.542
X113.665Y-96.479
X113.69Y-134.061
X113.894Y-89.662
X113.995Y-133.401
X114.503Y-105.004
X114.757Y-71.272
X114.808Y-143.256
X115.062Y-93.726
X115.57Y-90.627
X116.459Y-137.922
X116.649Y-100.393
X117.094Y-143.053
X117.348Y-140.589
X117.411Y-81.597
X117.475Y-80.645
X118.999Y-66.992
X119.228Y-122.022
X119.253Y-92.773
X119.278Y-151.79
X119.685Y-72.187
X120.863Y-149.161
X123.038Y-75.59
X123.952Y-74.727
X125.679Y-153.162
X125.73Y-109.88
X125.92Y-94.043
X127.Y-139.802
X127.762Y-146.964
X128.651Y-92.011
X129.731Y-94.043
X130.112Y-91.44
X132.232Y-105.004
X132.283Y-62.992
X132.842Y-62.433
X133.401Y-61.925
X133.96Y-61.417
X134.518Y-60.909
X135.077Y-60.401
X135.28Y-95.352
X135.636Y-59.893
X136.449Y-68.275
X136.906Y-68.986
X137.465Y-69.647
X139.497Y-55.321
X141.021Y-67.513
X141.58Y-66.904
X141.986Y-65.024
X142.067Y-63.673
T2
X53.137Y-114.452
X63.754Y-111.455
X64.465Y-93.777
X65.43Y-104.14
X65.837Y-106.883
X68.428Y-79.908
X68.936Y-83.617
X69.952Y-92.558
X71.933Y-93.116
X72.593Y-99.974
X75.54Y-82.804
X76.556Y-82.702
X76.759Y-101.803
X77.318Y-95.301
X79.045Y-95.91
X80.924Y-110.846
X82.448Y-118.059
X87.274Y-91.288
X88.443Y-100.482
X90.373Y-94.742
X99.822Y-75.895
X100.279Y-139.243
X101.041Y-144.12
X101.854Y-94.234
X101.905Y-70.002
X103.327Y-98.654
X106.07Y-135.738
X106.223Y-104.089
X106.832Y-131.013
X107.188Y-86.296
X109.474Y-151.536
X110.388Y-86.512
X111.303Y-128.829
X112.776Y-139.598
X114.656Y-125.476
X115.875Y-101.6
X116.129Y-133.553
X118.466Y-96.876
X118.516Y-111.709
X121.717Y-133.706
X125.527Y-97.384
X129.54Y-111.709
X129.794Y-140.157
X130.607Y-72.847
X130.861Y-78.029
X132.029Y-108.306
X134.569Y-106.528
X144.882Y-72.441
T3
X50.889Y-98.996
X50.889Y-101.409
X50.952Y-103.886
X50.952Y-106.236
X55.245Y-98.996
X55.245Y-101.409
X55.245Y-103.822
X55.245Y-106.236
T4
X55.27Y-79.197
X83.515Y-98.4
X99.365Y-137.008
X131.826Y-144.475
X131.826Y-147.625
T5
X55.644Y-83.863
X55.644Y-92.502
X106.858Y-55.608
X106.858Y-61.105
X111.059Y-55.608
X111.059Y-61.105
X115.255Y-55.608
X115.255Y-61.105
X119.456Y-55.608
X119.456Y-61.105
X142.667Y-88.506
X142.667Y-92.707
X142.667Y-96.904
X142.667Y-101.105
X148.163Y-88.506
X148.163Y-92.707
X148.163Y-96.904
X148.163Y-101.105
T6
X50.597Y-83.863
X50.597Y-92.502
T7
X87.566Y-109.41
X109.347Y-113.919
T8
X99.205Y-159.827
X116.703Y-151.831
T9
X53.767Y-66.847
X136.15Y-159.745
T10
X53.645Y-55.22
X88.544Y-55.524
X146.863Y-157.378
X146.964Y-119.634
T11
X53.767Y-130.267
X72.73Y-159.745
X88.777Y-75.067
X127.93Y-124.735
T12
X69.532Y-142.049
T0
M30
